<svg width="26" height="36" viewBox="0 0 26 36" fill="none" xmlns="http://www.w3.org/2000/svg">
<path d="M26 26.068C26.0042 28.3935 23.5376 29.8479 21.5677 28.6814L8.63226 21.0218C7.72336 20.4836 7.1631 19.4926 7.16114 18.4196L7.13335 3.14956C7.12911 0.824087 9.59576 -0.630278 11.5657 0.5362L24.5011 8.19582C25.41 8.73402 25.9702 9.72503 25.9722 10.798L26 26.068Z" fill="#602CF0"/>
<path d="M5.4415e-06 9.93197C-0.00422787 7.6065 2.46242 6.15213 4.43234 7.31861L17.3677 14.9782C18.2766 15.5164 18.8369 16.5074 18.8389 17.5804L18.8667 32.8504C18.8709 35.1759 16.4042 36.6303 14.4343 35.4638L1.49891 27.8042C0.59002 27.266 0.0297564 26.275 0.0278032 25.202L5.4415e-06 9.93197Z" fill="#28C79E"/>
</svg>
